<svg xmlns="http://www.w3.org/2000/svg" viewBox="0 0 720 180" role="img" aria-label="EverythingAP wordmark">
  <defs>
    <linearGradient id="badge" x1="18" y1="18" x2="162" y2="162" gradientUnits="userSpaceOnUse">
      <stop offset="0" stop-color="#171411" />
      <stop offset="1" stop-color="#241c15" />
    </linearGradient>
    <linearGradient id="badgeAccent" x1="44" y1="40" x2="134" y2="132" gradientUnits="userSpaceOnUse">
      <stop offset="0" stop-color="#f0b27a" />
      <stop offset="1" stop-color="#c86f38" />
    </linearGradient>
  </defs>

  <rect x="18" y="18" width="144" height="144" rx="38" fill="url(#badge)" />
  <rect x="18" y="18" width="144" height="144" rx="38" fill="none" stroke="#3a2d22" stroke-width="3" />

  <path
    d="M55 126V54h23.9c10.9 0 17.5 7.4 17.5 18.7 0 8.7-4.1 14.6-10.9 17l14.8 36.3H83L71.3 93.2h-4.1V126H55Zm12.2-43.4h10.1c4.6 0 7.3-2.8 7.3-7.2 0-4.6-2.7-7.2-7.3-7.2H67.2v14.4Z"
    fill="#fffaf2"
  />
  <path
    d="M107 126V54h18.5c19.8 0 31.9 13.4 31.9 36 0 22.6-12.1 36-31.9 36H107Zm12.3-13.2h5.4c12.8 0 20.2-8.2 20.2-22.8 0-14.4-7.4-22.8-20.2-22.8h-5.4v45.6Z"
    fill="url(#badgeAccent)"
  />

  <g fill="#f6f0e7">
    <path d="M223 123V56h48v13h-32.5v14.4h30.4v12.5h-30.4V110H272v13h-49Z" />
    <path d="M282.5 123V56H298v25.2h24.9V56h15.5v67h-15.5V94.1H298V123h-15.5Z" />
    <path d="M365 123V69.1h-19.6V56H400v13.1h-19.5V123H365Z" />
    <path d="M407.3 123V56h28c17.7 0 27.3 8.2 27.3 22.5 0 9.8-4.9 16.9-13.3 20l14.8 24.5h-17.6l-12.8-21.9h-10.9V123h-15.5Zm15.5-34.1h10.4c8.7 0 13.5-3.1 13.5-10 0-6.8-4.8-9.9-13.5-9.9h-10.4v19.9Z" />
    <path d="M472.2 123V56h15.5v67h-15.5Z" />
    <path d="M516.4 123V69.1h-19.6V56h54.6v13.1h-19.5V123h-15.5Z" />
    <path d="M559.3 123V56H607v13h-32.2v14.1H605v12.3h-30.2V123h-15.5Z" />
  </g>

  <g fill="#d78a56">
    <path d="M615.5 123l22.5-67h19.2l22.5 67h-16.5l-4.3-13.5h-23.1l-4.3 13.5h-16Zm23.7-25.2h15.8l-7.8-24.5h-.4l-7.6 24.5Z" />
    <path d="M688.5 123V56H716c17.3 0 27.4 8.3 27.4 22.8 0 14.9-10 23.4-27.8 23.4H704V123h-15.5Zm15.5-33.3h9.8c8.7 0 13.7-3.2 13.7-10.5 0-7.1-4.8-10.2-13.4-10.2H704v20.7Z" />
  </g>

  <path
    d="M207 141c87-14.7 189.6-22 307.6-22 55.6 0 111 2.4 166.4 7.1"
    fill="none"
    stroke="#f0b27a"
    stroke-linecap="round"
    stroke-width="4"
    opacity="0.55"
  />
</svg>
