<svg xmlns="http://www.w3.org/2000/svg" viewBox="0 0 64 64" role="img" aria-label="Everything AP favicon">
  <defs>
    <linearGradient id="bg" x1="8" y1="6" x2="56" y2="58" gradientUnits="userSpaceOnUse">
      <stop offset="0" stop-color="#8b80ff" />
      <stop offset="1" stop-color="#4f46e5" />
    </linearGradient>
    <linearGradient id="shine" x1="16" y1="12" x2="46" y2="40" gradientUnits="userSpaceOnUse">
      <stop offset="0" stop-color="#ffffff" stop-opacity=".32" />
      <stop offset="1" stop-color="#ffffff" stop-opacity="0" />
    </linearGradient>
  </defs>
  <rect width="64" height="64" rx="18" fill="#09090f" />
  <rect x="6" y="6" width="52" height="52" rx="16" fill="url(#bg)" />
  <path d="M18 16c10-4 20-5 30 0v10c-10-4-20-4-30 0z" fill="url(#shine)" />
  <path d="M18 46V24.5c0-2.2 1.8-4 4-4H32c7.7 0 13 4.2 13 11.2S39.7 43 32 43h-6v3zM26 35.8h5.5c3.8 0 5.9-1.4 5.9-4.1 0-2.8-2.1-4.2-5.9-4.2H26z" fill="#ffffff" />
  <path d="M16 48l10-27h7.2l10 27h-7.5l-1.5-4.6h-9.5L23.1 48zm10.8-10.3h5.4l-2.7-8.3z" fill="#e8e8f8" />
</svg>
