<svg xmlns="http://www.w3.org/2000/svg" viewBox="0 0 64 64" role="img" aria-label="Everything AP favicon">
  <defs>
    <radialGradient id="smoke" cx="50%" cy="50%" r="50%">
      <stop offset="0%" stop-color="#8b5cf6" stop-opacity="0.95" />
      <stop offset="55%" stop-color="#6d28d9" stop-opacity="0.78" />
      <stop offset="100%" stop-color="#2e1065" stop-opacity="0" />
    </radialGradient>
    <filter id="blur" x="-40%" y="-40%" width="180%" height="180%">
      <feGaussianBlur stdDeviation="4.5" />
    </filter>
    <filter id="glow" x="-50%" y="-50%" width="200%" height="200%">
      <feGaussianBlur stdDeviation="1.8" result="soft" />
      <feMerge>
        <feMergeNode in="soft" />
        <feMergeNode in="SourceGraphic" />
      </feMerge>
    </filter>
  </defs>
  <rect width="64" height="64" rx="16" fill="#050508" />
  <g filter="url(#blur)">
    <circle cx="32" cy="32" r="18" fill="url(#smoke)" />
    <circle cx="26" cy="29" r="10" fill="#7c3aed" fill-opacity="0.18" />
    <circle cx="38" cy="34" r="9" fill="#9333ea" fill-opacity="0.16" />
  </g>
  <g fill="#fff" filter="url(#glow)">
    <path d="M22.8 42.8c-6 0-10.1-4.5-10.1-10.6 0-6.2 4.4-10.7 10.6-10.7 2.9 0 5.5.8 7.4 2.6l.3-2h5.3l-2.3 20.7h-5.5l.3-2.3c-1.8 1.7-3.8 2.3-6 2.3Zm1.7-5.3c3.7 0 6.2-2.4 6.2-5.9 0-3.3-2.4-5.5-6-5.5-3.8 0-6.2 2.4-6.2 5.9 0 3.2 2.3 5.5 6 5.5Z"/>
    <path d="M36.8 50.2 40 21.8h5.5l-.3 2.1c1.8-1.7 3.8-2.4 6.1-2.4 6 0 10.1 4.4 10.1 10.6 0 6.3-4.4 10.7-10.6 10.7-2.7 0-5.3-.8-7.1-2.4l-1.1 9.8Zm12.2-12.7c3.8 0 6.2-2.3 6.2-5.8 0-3.3-2.3-5.6-6-5.6-3.8 0-6.2 2.4-6.2 5.9 0 3.2 2.3 5.5 6 5.5Z"/>
  </g>
</svg>
